<?xml version="1.0" encoding="UTF-8"?>
<!DOCTYPE svg PUBLIC "-//W3C//DTD SVG 1.1//EN" "http://www.w3.org/Graphics/SVG/1.1/DTD/svg11.dtd">
<svg xmlns="http://www.w3.org/2000/svg" version="1.1" width="64px" height="64px" style="shape-rendering:geometricPrecision; text-rendering:geometricPrecision; image-rendering:optimizeQuality; fill-rule:evenodd; clip-rule:evenodd" xmlns:xlink="http://www.w3.org/1999/xlink">
<g><path style="opacity:0.874" fill="#4a83b1" d="M 56.5,7.5 C 56.1866,10.2469 56.52,12.9135 57.5,15.5C 58.1067,15.3764 58.44,15.0431 58.5,14.5C 60.5138,14.3915 62.1805,15.0582 63.5,16.5C 63.5,17.8333 63.5,19.1667 63.5,20.5C 62.7515,19.469 62.0848,18.3024 61.5,17C 59.9343,16.235 58.6009,16.4017 57.5,17.5C 57.6665,27.1724 57.4998,36.8391 57,46.5C 56.5,47 56,47.5 55.5,48C 39.1701,48.4999 22.8367,48.6666 6.5,48.5C 4.30228,48.4088 3.96895,49.0755 5.5,50.5C 4.83333,50.5 4.5,50.8333 4.5,51.5C 3.06133,49.6397 1.39466,47.973 -0.5,46.5C -0.5,33.1667 -0.5,19.8333 -0.5,6.5C 0.473444,6.01328 1.47344,5.51328 2.5,5C 19.8333,4.33333 37.1667,4.33333 54.5,5C 55.756,5.41691 56.4226,6.25025 56.5,7.5 Z M 4.5,7.5 C 20.5035,7.33341 36.5035,7.50007 52.5,8C 53.3081,8.30762 53.9747,8.80762 54.5,9.5C 37.1667,10.8333 19.8333,10.8333 2.5,9.5C 3.24269,8.81815 3.90935,8.15149 4.5,7.5 Z M 2.5,13.5 C 19.8333,13.5 37.1667,13.5 54.5,13.5C 54.5,15.1667 54.5,16.8333 54.5,18.5C 37.1667,18.5 19.8333,18.5 2.5,18.5C 2.5,16.8333 2.5,15.1667 2.5,13.5 Z M 2.5,21.5 C 19.8333,21.5 37.1667,21.5 54.5,21.5C 54.815,29.4197 54.4817,37.253 53.5,45C 36.8367,45.4999 20.17,45.6666 3.5,45.5C 2.53281,37.5856 2.19947,29.5856 2.5,21.5 Z M 35.5,32.5 C 40.1667,32.5 44.8333,32.5 49.5,32.5C 49.5,34.8333 49.5,37.1667 49.5,39.5C 44.8333,39.5 40.1667,39.5 35.5,39.5C 35.5,37.1667 35.5,34.8333 35.5,32.5 Z"/></g>
<g><path style="opacity:0.58" fill="#7dba27" d="M 56.5,7.5 C 57.1667,9.83333 57.8333,12.1667 58.5,14.5C 58.44,15.0431 58.1067,15.3764 57.5,15.5C 56.52,12.9135 56.1866,10.2469 56.5,7.5 Z"/></g>
<g><path style="opacity:0.267" fill="#21869d" d="M 2.5,13.5 C 2.5,15.1667 2.5,16.8333 2.5,18.5C 19.8333,18.5 37.1667,18.5 54.5,18.5C 37.0079,19.4967 19.3412,19.8301 1.5,19.5C 1.20528,17.2646 1.53862,15.2646 2.5,13.5 Z"/></g>
<g><path style="opacity:0.133" fill="#328966" d="M 2.5,21.5 C 2.19947,29.5856 2.53281,37.5856 3.5,45.5C 2.17596,41.893 1.5093,37.893 1.5,33.5C 1.5011,29.3188 1.83443,25.3188 2.5,21.5 Z"/></g>
<g><path style="opacity:0.267" fill="#4094a0" d="M 3.5,25.5 C 7.16667,25.5 10.8333,25.5 14.5,25.5C 14.5,26.5 14.5,27.5 14.5,28.5C 10.8333,28.5 7.16667,28.5 3.5,28.5C 3.5,27.5 3.5,26.5 3.5,25.5 Z"/></g>
<g><path style="opacity:0.267" fill="#539d9e" d="M 16.5,25.5 C 20.1667,25.5 23.8333,25.5 27.5,25.5C 27.5,26.5 27.5,27.5 27.5,28.5C 23.8333,28.5 20.1667,28.5 16.5,28.5C 16.5,27.5 16.5,26.5 16.5,25.5 Z"/></g>
<g><path style="opacity:0.6" fill="#77807f" d="M 21.5,29.5 C 23.5,29.5 25.5,29.5 27.5,29.5C 27.5,30.5 27.5,31.5 27.5,32.5C 25.5,32.5 23.5,32.5 21.5,32.5C 21.5,31.5 21.5,30.5 21.5,29.5 Z"/></g>
<g><path style="opacity:1" fill="#6276b5" d="M 52.5,31.5 C 51.7986,34.5629 51.132,37.7296 50.5,41C 44.6518,41.1728 38.9851,41.6728 33.5,42.5C 32.5151,38.3656 32.1818,34.0323 32.5,29.5C 39.5837,28.8745 46.2504,29.5411 52.5,31.5 Z M 35.5,32.5 C 35.5,34.8333 35.5,37.1667 35.5,39.5C 40.1667,39.5 44.8333,39.5 49.5,39.5C 49.5,37.1667 49.5,34.8333 49.5,32.5C 44.8333,32.5 40.1667,32.5 35.5,32.5 Z"/></g>
<g><path style="opacity:0.533" fill="#45709a" d="M 3.5,29.5 C 9.16667,29.5 14.8333,29.5 20.5,29.5C 20.5,30.5 20.5,31.5 20.5,32.5C 14.8333,32.5 9.16667,32.5 3.5,32.5C 3.5,31.5 3.5,30.5 3.5,29.5 Z"/></g>
<g><path style="opacity:0.133" fill="#61a590" d="M 52.5,31.5 C 52.7892,35.1064 52.4558,38.6064 51.5,42C 45.5092,42.4995 39.5092,42.6662 33.5,42.5C 38.9851,41.6728 44.6518,41.1728 50.5,41C 51.132,37.7296 51.7986,34.5629 52.5,31.5 Z"/></g>
<g><path style="opacity:0.514" fill="#8fd084" d="M 6.5,48.5 C 7.56764,49.4345 8.90097,49.7678 10.5,49.5C 9.08134,50.4511 7.41467,50.7845 5.5,50.5C 3.96895,49.0755 4.30228,48.4088 6.5,48.5 Z"/></g>
<g><path style="opacity:0.929" fill="#7f80aa" d="M 57.5,17.5 C 58.6009,16.4017 59.9343,16.235 61.5,17C 62.0848,18.3024 62.7515,19.469 63.5,20.5C 63.5,23.8333 63.5,27.1667 63.5,30.5C 62.4085,39.0323 61.2419,47.699 60,56.5C 58.5589,57.2598 57.0589,57.9264 55.5,58.5C 38.3264,56.521 21.3264,54.1876 4.5,51.5C 4.5,50.8333 4.83333,50.5 5.5,50.5C 7.41467,50.7845 9.08134,50.4511 10.5,49.5C 26.0529,51.8205 41.7196,53.4872 57.5,54.5C 58.8304,42.1957 59.8304,29.8624 60.5,17.5C 59.5,17.5 58.5,17.5 57.5,17.5 Z"/></g>
</svg>
