<svg width="133" height="23" viewBox="0 0 133 23" fill="none" xmlns="http://www.w3.org/2000/svg">
<path d="M0.721591 18V0.545454H12.0739V3.19602H3.88352V7.93466H11.4858V10.5852H3.88352V15.3494H12.142V18H0.721591ZM17.6861 4.90909L20.3281 9.74148L23.0128 4.90909H26.277L22.331 11.4545L26.3452 18H23.098L20.3281 13.2869L17.5838 18H14.3111L18.2997 11.4545L14.4134 4.90909H17.6861ZM28.6634 22.9091V4.90909H31.6974V7.07386H31.8764C32.0355 6.75568 32.2599 6.41761 32.5497 6.05966C32.8395 5.69602 33.2315 5.38636 33.7259 5.13068C34.2202 4.86932 34.8509 4.73864 35.6179 4.73864C36.6293 4.73864 37.5412 4.99716 38.3537 5.5142C39.1719 6.02557 39.8196 6.78409 40.2969 7.78977C40.7798 8.78977 41.0213 10.017 41.0213 11.4716C41.0213 12.9091 40.7855 14.1307 40.3139 15.1364C39.8423 16.142 39.2003 16.9091 38.3878 17.4375C37.5753 17.9659 36.6548 18.2301 35.6264 18.2301C34.8764 18.2301 34.2543 18.1051 33.7599 17.8551C33.2656 17.6051 32.8679 17.304 32.5668 16.9517C32.2713 16.5937 32.0412 16.2557 31.8764 15.9375H31.7486V22.9091H28.6634ZM31.6889 11.4545C31.6889 12.3011 31.8082 13.0426 32.0469 13.679C32.2912 14.3153 32.6406 14.8125 33.0952 15.1705C33.5554 15.5227 34.1122 15.6989 34.7656 15.6989C35.4474 15.6989 36.0185 15.517 36.4787 15.1534C36.9389 14.7841 37.2855 14.2812 37.5185 13.6449C37.7571 13.0028 37.8764 12.2727 37.8764 11.4545C37.8764 10.642 37.7599 9.92045 37.527 9.28977C37.294 8.65909 36.9474 8.16477 36.4872 7.80682C36.027 7.44886 35.4531 7.26989 34.7656 7.26989C34.1065 7.26989 33.5469 7.44318 33.0866 7.78977C32.6264 8.13636 32.277 8.62216 32.0384 9.24716C31.8054 9.87216 31.6889 10.608 31.6889 11.4545ZM43.6634 18V4.90909H46.6548V7.09091H46.7912C47.0298 6.33523 47.4389 5.75284 48.0185 5.34375C48.6037 4.92898 49.2713 4.72159 50.0213 4.72159C50.1918 4.72159 50.3821 4.73011 50.5923 4.74716C50.8082 4.75852 50.9872 4.77841 51.1293 4.80682V7.64489C50.9986 7.59943 50.7912 7.55966 50.5071 7.52557C50.2287 7.4858 49.9588 7.46591 49.6974 7.46591C49.1349 7.46591 48.6293 7.58807 48.1804 7.83239C47.7372 8.07102 47.3878 8.40341 47.1321 8.82955C46.8764 9.25568 46.7486 9.74716 46.7486 10.304V18H43.6634ZM58.4354 18.2557C57.1229 18.2557 55.9893 17.983 55.0348 17.4375C54.0859 16.8864 53.3558 16.108 52.8445 15.1023C52.3331 14.0909 52.0774 12.9006 52.0774 11.5312C52.0774 10.1847 52.3331 9.00284 52.8445 7.9858C53.3615 6.96307 54.0831 6.16761 55.0092 5.59943C55.9354 5.02557 57.0234 4.73864 58.2734 4.73864C59.0803 4.73864 59.8416 4.86932 60.5575 5.13068C61.2791 5.38636 61.9155 5.78409 62.4666 6.32386C63.0234 6.86364 63.4609 7.55114 63.7791 8.38636C64.0973 9.21591 64.2564 10.2045 64.2564 11.3523V12.2983H53.5263V10.2188H61.299C61.2933 9.62784 61.1655 9.10227 60.9155 8.64205C60.6655 8.17614 60.3161 7.80966 59.8672 7.54261C59.424 7.27557 58.907 7.14205 58.3161 7.14205C57.6854 7.14205 57.1314 7.29545 56.6541 7.60227C56.1768 7.90341 55.8047 8.30114 55.5376 8.79545C55.2763 9.28409 55.1428 9.82102 55.1371 10.4062V12.2216C55.1371 12.983 55.2763 13.6364 55.5547 14.1818C55.8331 14.7216 56.2223 15.1364 56.7223 15.4261C57.2223 15.7102 57.8075 15.8523 58.478 15.8523C58.9268 15.8523 59.3331 15.7898 59.6967 15.6648C60.0604 15.5341 60.3757 15.3438 60.6428 15.0938C60.9098 14.8438 61.1115 14.5341 61.2479 14.1648L64.1286 14.4886C63.9467 15.25 63.6001 15.9148 63.0888 16.483C62.5831 17.0455 61.9354 17.483 61.1456 17.7955C60.3558 18.1023 59.4524 18.2557 58.4354 18.2557ZM77.2131 8.36932L74.4006 8.67614C74.321 8.39205 74.1818 8.125 73.983 7.875C73.7898 7.625 73.5284 7.4233 73.1989 7.26989C72.8693 7.11648 72.4659 7.03977 71.9886 7.03977C71.3466 7.03977 70.8068 7.17898 70.3693 7.45739C69.9375 7.7358 69.7244 8.09659 69.7301 8.53977C69.7244 8.92045 69.8636 9.23011 70.1477 9.46875C70.4375 9.70739 70.9148 9.90341 71.5795 10.0568L73.8125 10.5341C75.0511 10.8011 75.9716 11.2244 76.5739 11.804C77.1818 12.3835 77.4886 13.142 77.4943 14.0795C77.4886 14.9034 77.2472 15.6307 76.7699 16.2614C76.2983 16.8864 75.642 17.375 74.8011 17.7273C73.9602 18.0795 72.9943 18.2557 71.9034 18.2557C70.3011 18.2557 69.0114 17.9205 68.0341 17.25C67.0568 16.5739 66.4744 15.6335 66.2869 14.429L69.2955 14.1392C69.4318 14.7301 69.7216 15.1761 70.1648 15.4773C70.608 15.7784 71.1847 15.929 71.8949 15.929C72.6278 15.929 73.2159 15.7784 73.6591 15.4773C74.108 15.1761 74.3324 14.804 74.3324 14.3608C74.3324 13.9858 74.1875 13.6761 73.8977 13.4318C73.6136 13.1875 73.1705 13 72.5682 12.8693L70.3352 12.4006C69.0795 12.1392 68.1506 11.6989 67.5483 11.0795C66.946 10.4545 66.6477 9.66477 66.6534 8.71023C66.6477 7.90341 66.8665 7.20455 67.3097 6.61364C67.7585 6.01705 68.3807 5.55682 69.1761 5.23295C69.9773 4.90341 70.9006 4.73864 71.946 4.73864C73.4801 4.73864 74.6875 5.06534 75.5682 5.71875C76.4545 6.37216 77.0028 7.25568 77.2131 8.36932ZM90.3849 8.36932L87.5724 8.67614C87.4929 8.39205 87.3537 8.125 87.1548 7.875C86.9616 7.625 86.7003 7.4233 86.3707 7.26989C86.0412 7.11648 85.6378 7.03977 85.1605 7.03977C84.5185 7.03977 83.9787 7.17898 83.5412 7.45739C83.1094 7.7358 82.8963 8.09659 82.902 8.53977C82.8963 8.92045 83.0355 9.23011 83.3196 9.46875C83.6094 9.70739 84.0866 9.90341 84.7514 10.0568L86.9844 10.5341C88.223 10.8011 89.1435 11.2244 89.7457 11.804C90.3537 12.3835 90.6605 13.142 90.6662 14.0795C90.6605 14.9034 90.419 15.6307 89.9418 16.2614C89.4702 16.8864 88.8139 17.375 87.973 17.7273C87.1321 18.0795 86.1662 18.2557 85.0753 18.2557C83.473 18.2557 82.1832 17.9205 81.206 17.25C80.2287 16.5739 79.6463 15.6335 79.4588 14.429L82.4673 14.1392C82.6037 14.7301 82.8935 15.1761 83.3366 15.4773C83.7798 15.7784 84.3565 15.929 85.0668 15.929C85.7997 15.929 86.3878 15.7784 86.831 15.4773C87.2798 15.1761 87.5043 14.804 87.5043 14.3608C87.5043 13.9858 87.3594 13.6761 87.0696 13.4318C86.7855 13.1875 86.3423 13 85.7401 12.8693L83.5071 12.4006C82.2514 12.1392 81.3224 11.6989 80.7202 11.0795C80.1179 10.4545 79.8196 9.66477 79.8253 8.71023C79.8196 7.90341 80.0384 7.20455 80.4815 6.61364C80.9304 6.01705 81.5526 5.55682 82.348 5.23295C83.1491 4.90341 84.0724 4.73864 85.1179 4.73864C86.652 4.73864 87.8594 5.06534 88.7401 5.71875C89.6264 6.37216 90.1747 7.25568 90.3849 8.36932Z" fill="#252525"/>
<path d="M93.3466 0.545454H97.2159L102.398 13.1932H102.602L107.784 0.545454H111.653V18H108.619V6.00852H108.457L103.634 17.9489H101.366L96.5426 5.98295H96.3807V18H93.3466V0.545454ZM115.097 18V0.545454H126.449V3.19602H118.259V7.93466H125.861V10.5852H118.259V15.3494H126.517V18H115.097ZM132.837 0.545454V18H129.675V0.545454H132.837Z" fill="#1E88E5"/>
</svg>
